<svg width="200" height="200" viewBox="0 0 200 200" fill="none" xmlns="http://www.w3.org/2000/svg">
  <defs>
    <linearGradient id="leafGradient" x1="0%" y1="0%" x2="100%" y2="100%">
      <stop offset="0%" style="stop-color:#22C55E;stop-opacity:1" />
      <stop offset="100%" style="stop-color:#16A34A;stop-opacity:1" />
    </linearGradient>
  </defs>
  
  <!-- Background circle -->
  <circle cx="100" cy="100" r="90" fill="url(#leafGradient)" opacity="0.1"/>
  
  <!-- Calculator base -->
  <rect x="40" y="50" width="120" height="100" rx="8" fill="#FFFFFF" stroke="#22C55E" stroke-width="3"/>
  
  <!-- Screen -->
  <rect x="50" y="60" width="100" height="30" rx="4" fill="#1F2937"/>
  <text x="100" y="80" font-family="Arial" font-size="16" fill="#22C55E" text-anchor="middle" font-weight="bold">CO₂</text>
  
  <!-- Buttons -->
  <g id="buttons">
    <!-- Row 1 -->
    <rect x="55" y="100" width="20" height="20" rx="3" fill="#E5E7EB" stroke="#9CA3AF" stroke-width="1"/>
    <rect x="80" y="100" width="20" height="20" rx="3" fill="#E5E7EB" stroke="#9CA3AF" stroke-width="1"/>
    <rect x="105" y="100" width="20" height="20" rx="3" fill="#E5E7EB" stroke="#9CA3AF" stroke-width="1"/>
    <rect x="130" y="100" width="20" height="20" rx="3" fill="#22C55E" stroke="#16A34A" stroke-width="1"/>
    
    <!-- Row 2 -->
    <rect x="55" y="125" width="20" height="20" rx="3" fill="#E5E7EB" stroke="#9CA3AF" stroke-width="1"/>
    <rect x="80" y="125" width="20" height="20" rx="3" fill="#E5E7EB" stroke="#9CA3AF" stroke-width="1"/>
    <rect x="105" y="125" width="20" height="20" rx="3" fill="#E5E7EB" stroke="#9CA3AF" stroke-width="1"/>
    <rect x="130" y="125" width="20" height="20" rx="3" fill="#22C55E" stroke="#16A34A" stroke-width="1"/>
  </g>
  
  <!-- Leaf decoration -->
  <path d="M 160 40 Q 180 30 190 50 Q 200 70 185 85 Q 170 100 150 95 Q 145 75 155 60 Q 165 45 160 40" 
        fill="#22C55E" opacity="0.8"/>
  <path d="M 40 160 Q 20 170 10 150 Q 0 130 15 115 Q 30 100 50 105 Q 55 125 45 140 Q 40 155 40 160" 
        fill="#16A34A" opacity="0.8"/>
</svg>

