<svg width="100" height="100" viewBox="0 0 100 100" fill="none" xmlns="http://www.w3.org/2000/svg">
  <defs>
    <linearGradient id="leafGrad" x1="0%" y1="0%" x2="100%" y2="100%">
      <stop offset="0%" style="stop-color:#22C55E;stop-opacity:1" />
      <stop offset="50%" style="stop-color:#16A34A;stop-opacity:1" />
      <stop offset="100%" style="stop-color:#15803D;stop-opacity:1" />
    </linearGradient>
  </defs>
  
  <!-- Leaf -->
  <path d="M 50 10 Q 60 5 70 15 Q 75 25 72 35 Q 70 45 65 50 Q 60 55 55 58 Q 50 60 45 58 Q 40 55 35 50 Q 30 45 28 35 Q 25 25 30 15 Q 40 5 50 10" 
        fill="url(#leafGrad)" stroke="#15803D" stroke-width="1"/>
  
  <!-- Leaf Veins -->
  <line x1="50" y1="10" x2="50" y2="60" stroke="#15803D" stroke-width="1" opacity="0.5"/>
  <line x1="50" y1="20" x2="60" y2="35" stroke="#15803D" stroke-width="0.5" opacity="0.4"/>
  <line x1="50" y1="20" x2="40" y2="35" stroke="#15803D" stroke-width="0.5" opacity="0.4"/>
  <line x1="50" y1="30" x2="65" y2="45" stroke="#15803D" stroke-width="0.5" opacity="0.4"/>
  <line x1="50" y1="30" x2="35" y2="45" stroke="#15803D" stroke-width="0.5" opacity="0.4"/>
  
  <!-- Stem -->
  <line x1="50" y1="60" x2="50" y2="90" stroke="#8B4513" stroke-width="2" stroke-linecap="round"/>
</svg>

