<svg width="400" height="400" viewBox="0 0 400 400" fill="none" xmlns="http://www.w3.org/2000/svg">
  <defs>
    <pattern id="leafPattern" x="0" y="0" width="100" height="100" patternUnits="userSpaceOnUse">
      <path d="M 50 10 Q 60 0 70 10 Q 80 20 75 35 Q 70 50 50 50 Q 30 50 25 35 Q 20 20 30 10 Q 40 0 50 10" 
            fill="#22C55E" opacity="0.3"/>
    </pattern>
  </defs>
  
  <rect width="400" height="400" fill="url(#leafPattern)"/>
  
  <!-- Decorative leaves -->
  <g opacity="0.2">
    <path d="M 100 50 Q 120 40 140 50 Q 160 60 155 80 Q 150 100 130 100 Q 110 100 105 80 Q 100 60 100 50" 
          fill="#16A34A"/>
    <path d="M 300 150 Q 320 140 340 150 Q 360 160 355 180 Q 350 200 330 200 Q 310 200 305 180 Q 300 160 300 150" 
          fill="#16A34A"/>
    <path d="M 200 250 Q 220 240 240 250 Q 260 260 255 280 Q 250 300 230 300 Q 210 300 205 280 Q 200 260 200 250" 
          fill="#22C55E"/>
    <path d="M 50 300 Q 70 290 90 300 Q 110 310 105 330 Q 100 350 80 350 Q 60 350 55 330 Q 50 310 50 300" 
          fill="#22C55E"/>
  </g>
</svg>

